<svg xmlns="http://www.w3.org/2000/svg" width="40" height="40" viewBox="0 0 40 40">
  <g id="Group_72656" data-name="Group 72656" transform="translate(-57 -181)">
    <g id="Rectangle_389" data-name="Rectangle 389" transform="translate(61 185)" fill="none" stroke="#7e97d4" stroke-width="2">
      <rect width="32" height="32" rx="6" stroke="none"/>
      <rect x="1" y="1" width="30" height="30" rx="5" fill="none"/>
    </g>
    <g id="Button_-_Home" data-name="Button - Home" transform="translate(53 177)">
      <rect id="Bounding_Box" data-name="Bounding Box" width="40" height="40" transform="translate(4 4)" fill="none"/>
      <rect id="Canvas" width="18" height="18" transform="translate(15 15)" fill="#fff" opacity="0"/>
      <path id="Icon" d="M20.181,12.932l-9.4-9.4a.6.6,0,0,0-.85,0l-9.4,9.4a.6.6,0,0,0,0,.85l1.11,1.11a.567.567,0,0,0,.4.166h.378v5.1a.567.567,0,0,0,.567.567H7.523a.567.567,0,0,0,.567-.567V14.491a.567.567,0,0,1,.567-.567h3.4a.567.567,0,0,1,.567.567v5.668a.567.567,0,0,0,.567.567h4.534a.567.567,0,0,0,.567-.567v-5.1h.378a.567.567,0,0,0,.4-.166l1.11-1.11a.6.6,0,0,0,0-.85Z" transform="translate(13.821 12.321)" fill="#7e97d4" fill-rule="evenodd"/>
    </g>
  </g>
</svg>
